<svg width="141" height="141" viewBox="0 0 141 141" fill="none" xmlns="http://www.w3.org/2000/svg">
<path d="M70.5 141C109.436 141 141 109.436 141 70.5C141 31.5639 109.436 0 70.5 0C31.5639 0 0 31.5639 0 70.5C0 109.436 31.5639 141 70.5 141Z" fill="#EB047C"/>
<path d="M91.1543 45.7148C91.1543 34.3261 81.8888 25.0605 70.5 25.0605C59.1112 25.0605 49.8457 34.3261 49.8457 45.7148C49.8457 57.1036 59.1112 66.3691 70.5 66.3691C81.8888 66.3691 91.1543 57.1036 91.1543 45.7148ZM70.5 66.3691C50.0002 66.3691 33.3223 83.0471 33.3223 103.547V107.418C33.3223 108.593 33.8218 109.711 34.6965 110.495C44.7587 119.511 57.474 124.477 70.5 124.477C83.5263 124.477 96.2416 119.511 106.304 110.495C106.736 110.107 107.082 109.633 107.319 109.103C107.555 108.573 107.678 107.999 107.678 107.418V103.547C107.678 83.0471 90.9998 66.3691 70.5 66.3691Z" fill="white"/>
<path d="M70.5 141C109.436 141 141 109.436 141 70.5C141 31.5639 109.436 0 70.5 0C31.5639 0 0 31.5639 0 70.5C0 109.436 31.5639 141 70.5 141Z" fill="black" fill-opacity="0.57"/>
<path fill-rule="evenodd" clip-rule="evenodd" d="M70 80.224C72.0119 80.224 73.9786 79.6955 75.6514 78.7055C77.3243 77.7154 78.628 76.3082 79.3979 74.6618C80.1678 73.0155 80.3692 71.2039 79.9766 69.4561C79.5841 67.7084 78.6152 66.103 77.1925 64.8429C75.7699 63.5829 73.9573 62.7248 71.984 62.3773C70.0108 62.0297 67.9654 62.2082 66.1067 62.8902C64.248 63.5722 62.6593 64.727 61.5416 66.2088C60.424 67.6905 59.8274 69.4325 59.8275 71.2145C59.8307 73.6032 60.9035 75.8932 62.8105 77.5823C64.7176 79.2713 67.3031 80.2213 70 80.224ZM70 59.1499C72.6939 59.1498 75.3273 59.8573 77.5673 61.1829C79.8072 62.5084 81.5531 64.3926 82.5841 66.597C83.6151 68.8014 83.8849 71.2271 83.3595 73.5673C82.834 75.9075 81.5368 78.0572 79.632 79.7445C77.7272 81.4317 75.3003 82.5808 72.6582 83.0464C70.016 83.5119 67.2774 83.2731 64.7885 82.3601C62.2996 81.447 60.1723 79.9008 58.6756 77.9169C57.1789 75.933 56.3799 73.6006 56.3798 71.2145C56.3839 68.016 57.8201 64.9495 60.3735 62.6878C62.9269 60.426 66.3889 59.1537 70 59.1499ZM95 85.9C94.9996 86.4568 94.7497 86.9907 94.3052 87.3845C93.8607 87.7782 93.2579 87.9996 92.6292 88H47.3709C46.7423 87.9995 46.1395 87.7781 45.695 87.3844C45.2505 86.9907 45.0005 86.4568 45 85.9V59.303C45.0005 58.7461 45.2504 58.2123 45.6949 57.8185C46.1394 57.4248 46.7421 57.2033 47.3708 57.2028H58.8631C59.0375 57.2029 59.2079 57.156 59.3516 57.0684C59.4954 56.9808 59.6057 56.8566 59.668 56.7123L62.1365 51H77.8634L80.3323 56.7123C80.3943 56.8567 80.5045 56.981 80.6482 57.0686C80.7919 57.1563 80.9623 57.2031 81.1368 57.2028H92.6291C93.2577 57.2034 93.8604 57.4249 94.3048 57.8186C94.7493 58.2123 94.9993 58.7462 94.9998 59.303L95 85.9Z" fill="white"/>
</svg>
