<svg width="33" height="32" viewBox="0 0 33 32" fill="none" xmlns="http://www.w3.org/2000/svg">
<path d="M1 12.3589V28.3057C1 28.8697 1.22404 29.4105 1.62283 29.8092C2.02163 30.208 2.5625 30.432 3.12648 30.432H29.7075C30.2715 30.432 30.8124 30.208 31.2112 29.8092C31.61 29.4105 31.834 28.8697 31.834 28.3057V12.3589" stroke="#5C2D91" stroke-width="1.8" stroke-linecap="round" stroke-linejoin="round"/>
<path d="M7.11364 9.57886C4.97607 10.2316 2.92377 11.1363 1 12.2739L15.2102 22.0706C15.5651 22.3151 15.986 22.4461 16.417 22.4461C16.848 22.4461 17.2689 22.3151 17.6238 22.0706L31.834 12.2739C29.9102 11.1363 27.8579 10.2316 25.7204 9.57886" stroke="#5C2D91" stroke-width="1.8" stroke-linecap="round" stroke-linejoin="round"/>
<path d="M7.11371 16.4897V2.59469C7.11371 2.17175 7.28174 1.76613 7.58083 1.46707C7.87993 1.16801 8.28559 1 8.70857 1H24.1256C24.5486 1 24.9542 1.16801 25.2533 1.46707C25.5524 1.76613 25.7204 2.17175 25.7204 2.59469V16.4844L17.6239 22.0711C17.269 22.3157 16.8481 22.4467 16.4171 22.4467C15.986 22.4467 15.5652 22.3157 15.2103 22.0711L7.11902 16.4897" stroke="#5C2D91" stroke-width="1.8" stroke-linecap="round" stroke-linejoin="round"/>
<path d="M21.4673 5.72522H11.3665" stroke="#5C2D91" stroke-width="1.8" stroke-linecap="round" stroke-linejoin="round"/>
<path d="M16.4169 13.9171H11.3665" stroke="#5C2D91" stroke-width="1.8" stroke-linecap="round" stroke-linejoin="round"/>
<path d="M21.4673 9.82324H11.3665" stroke="#5C2D91" stroke-width="1.8" stroke-linecap="round" stroke-linejoin="round"/>
<path d="M12.7913 20.4121L1.6857 29.8739" stroke="#5C2D91" stroke-width="1.8" stroke-linecap="round" stroke-linejoin="round"/>
<path d="M20.016 20.4121L31.1534 29.8739" stroke="#5C2D91" stroke-width="1.8" stroke-linecap="round" stroke-linejoin="round"/>
</svg>
