<svg width="23" height="30" viewBox="0 0 23 30" fill="none" xmlns="http://www.w3.org/2000/svg">
<path d="M20.2141 12.9375H18.3859V8.9375C18.3859 5.0625 15.2781 1.875 11.5 1.875C7.72188 1.875 4.61407 5.0625 4.61407 8.9375V12.9375H2.78594V8.9375C2.78594 4 6.68594 0 11.5 0C16.3141 0 20.2141 4 20.2141 8.9375V12.9375Z" fill="#5C2D91"/>
<path d="M19.3 29.9375H3.7C2.11563 29.9375 0.775002 28.5625 0.775002 26.9375V14.9375C0.775002 13.3125 2.11563 11.9375 3.7 11.9375H19.3C20.8844 11.9375 22.225 13.3125 22.225 14.9375V26.9375C22.225 28.625 20.8844 29.9375 19.3 29.9375ZM3.7 13.9375C3.15156 13.9375 2.725 14.375 2.725 14.9375V26.9375C2.725 27.5 3.15156 27.9375 3.7 27.9375H19.3C19.8484 27.9375 20.275 27.5 20.275 26.9375V14.9375C20.275 14.375 19.8484 13.9375 19.3 13.9375H3.7Z" fill="#5C2D91"/>
<path d="M13.45 17.9375C13.45 19.0625 12.5969 19.9375 11.5 19.9375C10.4031 19.9375 9.55 19.0625 9.55 17.9375C9.55 16.8125 10.4031 15.9375 11.5 15.9375C12.5969 15.9375 13.45 16.875 13.45 17.9375Z" fill="#5C2D91"/>
<path d="M11.9875 17.9375H11.0125L10.0375 23.9375H12.9625L11.9875 17.9375Z" fill="#5C2D91"/>
</svg>
