<svg width="48" height="48" viewBox="0 0 48 48" fill="none" xmlns="http://www.w3.org/2000/svg">
<g clip-path="url(#clip0_266_986)">
<path d="M24 48C37.2548 48 48 37.2548 48 24C48 10.7452 37.2548 0 24 0C10.7452 0 0 10.7452 0 24C0 37.2548 10.7452 48 24 48Z" fill="#5C2D91" fill-opacity="0.4"/>
<path d="M31.0312 15.5625C31.0312 11.6855 27.877 8.53125 24 8.53125C20.123 8.53125 16.9688 11.6855 16.9688 15.5625C16.9688 19.4395 20.123 22.5938 24 22.5938C27.877 22.5938 31.0312 19.4395 31.0312 15.5625ZM24 22.5938C17.0213 22.5938 11.3438 28.2713 11.3438 35.25V36.5679C11.3438 36.9677 11.5138 37.3485 11.8116 37.6152C15.237 40.6846 19.5656 42.375 24 42.375C28.4345 42.375 32.7631 40.6846 36.1884 37.6152C36.3356 37.4833 36.4534 37.3219 36.534 37.1415C36.6146 36.961 36.6563 36.7656 36.6562 36.5679V35.25C36.6562 28.2713 30.9787 22.5938 24 22.5938Z" fill="white"/>
</g>
<defs>
<clipPath id="clip0_266_986">
<rect width="48" height="48" fill="white"/>
</clipPath>
</defs>
</svg>
