<svg width="32" height="38" viewBox="0 0 32 38" fill="none" xmlns="http://www.w3.org/2000/svg">
<path d="M15.3458 17.9926C17.8176 17.9926 19.9577 17.106 21.7069 15.3568C23.4555 13.608 24.3423 11.4681 24.3423 8.99603C24.3423 6.52468 23.4558 4.38461 21.7066 2.63513C19.9574 0.886523 17.8173 0 15.3458 0C12.8736 0 10.7337 0.886523 8.98487 2.63542C7.23605 4.38432 6.34916 6.52446 6.34916 8.99603C6.34916 11.4681 7.23597 13.6083 8.98494 15.3572C10.7344 17.1058 12.8745 17.9926 15.3457 17.9926H15.3458ZM10.5329 4.18312C11.8748 2.84115 13.449 2.18888 15.3458 2.18888C17.2423 2.18888 18.8167 2.84115 20.1589 4.18312C21.5009 5.5253 22.1534 7.09977 22.1534 8.99596C22.1534 10.8927 21.5009 12.467 20.1589 13.8092C18.8167 15.1514 17.2423 15.8037 15.3458 15.8037C13.4495 15.8037 11.8754 15.1511 10.5329 13.8092C9.1906 12.4673 8.53803 10.8928 8.53803 8.99603C8.53803 7.09977 9.1906 5.5253 10.5329 4.18312ZM31.0873 28.7217C31.0368 27.994 30.9348 27.2 30.7846 26.3617C30.633 25.5169 30.4379 24.7185 30.2041 23.9886C29.9625 23.2343 29.6345 22.4895 29.2284 21.7755C28.8075 21.0346 28.3128 20.3894 27.7577 19.8586C27.1772 19.3032 26.4665 18.8566 25.6446 18.5308C24.8256 18.2069 23.9179 18.0428 22.9471 18.0428C22.5658 18.0428 22.1971 18.1992 21.4849 18.6629C20.9787 18.9925 20.4709 19.3198 19.9617 19.6448C19.4724 19.9566 18.8096 20.2487 17.9908 20.5132C17.1921 20.7716 16.381 20.9027 15.5802 20.9027C14.7801 20.9027 13.969 20.7716 13.1697 20.5132C12.3519 20.2489 11.6887 19.9569 11.2002 19.6451C10.6334 19.2829 10.1205 18.9523 9.67566 18.6625C8.96408 18.1989 8.5953 18.0424 8.21405 18.0424C7.24283 18.0424 6.33552 18.2068 5.51677 18.5312C4.69546 18.8563 3.98446 19.3029 3.4034 19.8589C2.8483 20.39 2.3536 21.0349 1.93296 21.7755C1.52749 22.4894 1.1992 23.234 0.957506 23.9889C0.724057 24.7188 0.528908 25.5169 0.377312 26.3617C0.22681 27.1989 0.125114 27.9931 0.0746307 28.7226C0.0250228 29.4359 0 30.1783 0 30.9283C0 32.8781 0.619807 34.4565 1.84206 35.6206C3.04921 36.7695 4.64622 37.3518 6.58881 37.3518H24.574C26.516 37.3518 28.113 36.7694 29.3205 35.6207C30.543 34.4574 31.1628 32.8784 31.1628 30.928C31.1625 30.1754 31.1372 29.433 31.0873 28.7217ZM27.8113 34.0348C27.0136 34.7939 25.9546 35.163 24.5736 35.163H6.58888C5.20766 35.163 4.14868 34.7939 3.35131 34.0351C2.56911 33.2904 2.18895 32.274 2.18895 30.9283C2.18895 30.2284 2.212 29.5374 2.25825 28.8739C2.30319 28.223 2.39526 27.508 2.53183 26.7483C2.66657 25.998 2.83808 25.2938 3.04213 24.6564C3.23794 24.045 3.50495 23.4398 3.83608 22.8568C4.15211 22.301 4.51571 21.8243 4.91695 21.4402C5.29229 21.0808 5.76539 20.7867 6.32275 20.5662C6.83823 20.3621 7.41762 20.2504 8.04655 20.2335C8.12315 20.2744 8.25972 20.3522 8.48084 20.4963C8.93081 20.7896 9.44943 21.1241 10.0228 21.4903C10.6692 21.9024 11.5018 22.2745 12.4967 22.5957C13.5137 22.9246 14.551 23.0915 15.5806 23.0915C16.6103 23.0915 17.6478 22.9246 18.6643 22.596C19.66 22.2743 20.4924 21.9024 21.1396 21.4897C21.7264 21.1147 22.2305 20.7899 22.6804 20.4963C22.9016 20.3524 23.0381 20.2743 23.1147 20.2336C23.744 20.2504 24.3233 20.3621 24.8391 20.5661C25.3962 20.7867 25.8693 21.0811 26.2446 21.4401C26.6458 21.824 27.0094 22.3008 27.3254 22.8571C27.6569 23.4398 27.9242 24.0454 28.1197 24.6561C28.324 25.2944 28.4958 25.9983 28.6303 26.748C28.7665 27.5092 28.8589 28.2245 28.9039 28.8742V28.8748C28.9504 29.5356 28.9737 30.2264 28.974 30.9283C28.9737 32.2743 28.5936 33.2905 27.8114 34.0348H27.8113Z" fill="#5C2D91"/>
</svg>
