<svg width="24" height="24" viewBox="0 0 24 24" fill="none" xmlns="http://www.w3.org/2000/svg">
<path d="M23.5 2.49983H14V0.999828C14 0.924673 13.983 0.850495 13.9503 0.78281C13.9176 0.715125 13.8701 0.655674 13.8113 0.608878C13.7525 0.562082 13.6839 0.529145 13.6106 0.512515C13.5373 0.495886 13.4612 0.495993 13.388 0.512828L0.388 3.51283C0.277783 3.53816 0.179409 3.60011 0.10894 3.68856C0.0384697 3.77701 6.66312e-05 3.88674 0 3.99983L0 20.9998C4.54341e-05 21.1192 0.0428206 21.2347 0.120589 21.3253C0.198357 21.4159 0.305983 21.4757 0.424 21.4938L13.424 23.4938C13.4953 23.505 13.5681 23.5005 13.6375 23.4808C13.7068 23.4611 13.7711 23.4265 13.8259 23.3796C13.8806 23.3326 13.9245 23.2744 13.9546 23.2088C13.9846 23.1432 14.0001 23.072 14 22.9998V21.4998H23.5C23.6326 21.4998 23.7598 21.4472 23.8536 21.3534C23.9473 21.2596 24 21.1324 24 20.9998V2.99983C24 2.86722 23.9473 2.74004 23.8536 2.64627C23.7598 2.55251 23.6326 2.49983 23.5 2.49983ZM14 9.49983H17V11.4998H14V9.49983ZM4.076 15.7348L6.245 12.2648C6.29501 12.1855 6.32154 12.0936 6.32154 11.9998C6.32154 11.906 6.29501 11.8142 6.245 11.7348L4.077 8.26483C4.03893 8.20922 4.0125 8.14648 3.99929 8.0804C3.98608 8.01431 3.98637 7.94624 4.00013 7.88027C4.0139 7.8143 4.04086 7.75179 4.07939 7.6965C4.11793 7.64121 4.16724 7.59429 4.22437 7.55854C4.2815 7.52279 4.34526 7.49896 4.41184 7.48848C4.47841 7.478 4.54641 7.48109 4.61176 7.49755C4.67711 7.51402 4.73846 7.54353 4.79211 7.5843C4.84577 7.62508 4.89063 7.67628 4.924 7.73483L6.576 10.3778C6.759 10.6698 7.241 10.6698 7.424 10.3778L9.076 7.73483C9.11063 7.67896 9.15595 7.63049 9.20936 7.59219C9.26278 7.5539 9.32323 7.52653 9.38725 7.51166C9.45127 7.49679 9.5176 7.49472 9.58243 7.50556C9.64725 7.5164 9.7093 7.53994 9.765 7.57483C9.82076 7.60955 9.86914 7.65491 9.90736 7.70834C9.94558 7.76176 9.9729 7.82219 9.98776 7.88618C10.0026 7.95016 10.0047 8.01645 9.99396 8.08125C9.98319 8.14605 9.95976 8.20809 9.925 8.26383L7.756 11.7338C7.70599 11.8132 7.67946 11.905 7.67946 11.9988C7.67946 12.0926 7.70599 12.1845 7.756 12.2638L9.924 15.7338C9.9588 15.7895 9.98229 15.8515 9.99314 15.9163C10.004 15.981 10.002 16.0473 9.9872 16.1113C9.97243 16.1752 9.94521 16.2357 9.90709 16.2891C9.86896 16.3426 9.82068 16.388 9.765 16.4228C9.65156 16.4897 9.51677 16.5103 9.38852 16.4806C9.26026 16.4508 9.14837 16.3728 9.076 16.2628L7.424 13.6198C7.37862 13.5484 7.31593 13.4896 7.24176 13.449C7.16758 13.4083 7.08433 13.387 6.99972 13.3871C6.91512 13.3872 6.83192 13.4087 6.75784 13.4495C6.68376 13.4904 6.62121 13.5493 6.576 13.6208L4.924 16.2638C4.85147 16.3736 4.73958 16.4514 4.6114 16.4812C4.48321 16.511 4.3485 16.4904 4.235 16.4238C4.17932 16.389 4.13104 16.3436 4.09291 16.2901C4.05479 16.2367 4.02757 16.1762 4.0128 16.1123C3.99804 16.0483 3.99602 15.982 4.00686 15.9173C4.01771 15.8525 4.0412 15.7905 4.076 15.7348ZM14 12.4998H17V14.4998H14V12.4998ZM18 12.4998H23V14.4998H18V12.4998ZM18 11.4998V9.49983H23V11.4998H18ZM18 8.49983V6.49983H23V8.49983H18ZM17 8.49983H14V6.49983H17V8.49983ZM14 15.4998H17V17.4998H14V15.4998ZM18 15.4998H23V17.4998H18V15.4998ZM23 5.49983H18V3.49983H23V5.49983ZM17 3.49983V5.49983H14V3.49983H17ZM14 18.4998H17V20.4998H14V18.4998ZM18 20.4998V18.4998H23V20.4998H18Z" fill="#5B2C90"/>
</svg>
